<svg width="1441" height="241" viewBox="0 0 1441 241" fill="none" xmlns="http://www.w3.org/2000/svg">
<g clip-path="url(#clip0_116_2)">
<path d="M388.25 54.6667C388.25 50.763 384.997 46.5 379.667 46.5H242.333C237.012 46.5 233.75 50.7385 233.75 54.6667V185.333C233.75 190.405 238.213 193.5 242.333 193.5H379.667C383.769 193.5 388.25 190.405 388.25 185.333V54.6667ZM246.625 58.75H375.375V181.25H246.625V58.75ZM270.813 106.648L293.43 119.894L270.761 133.328C268.985 134.52 268.032 136.415 268.032 138.334C268.032 143.242 273.886 146.223 278.177 143.34L308.313 124.908C310.021 123.757 311.043 121.895 311.043 119.894C311.043 117.901 310.021 116.039 308.313 114.888L278.229 96.6352C273.954 93.7768 268.083 96.7087 268.083 101.633C268.083 103.561 269.036 105.455 270.813 106.648ZM353.882 138.277C353.882 134.896 350.998 132.152 347.445 132.152H317.403C313.858 132.152 310.966 134.896 310.966 138.277C310.966 141.658 313.858 144.402 317.403 144.402H347.445C350.998 144.402 353.882 141.658 353.882 138.277Z" fill="#049789" fill-opacity="0.1"/>
<path d="M568.25 54.6667C568.25 50.763 564.997 46.5 559.667 46.5H422.333C417.012 46.5 413.75 50.7385 413.75 54.6667V185.333C413.75 190.405 418.213 193.5 422.333 193.5H559.667C563.769 193.5 568.25 190.405 568.25 185.333V54.6667ZM426.625 58.75H555.375V181.25H426.625V58.75ZM450.813 106.648L473.43 119.894L450.761 133.328C448.985 134.52 448.032 136.415 448.032 138.334C448.032 143.242 453.886 146.223 458.177 143.34L488.313 124.908C490.021 123.757 491.043 121.895 491.043 119.894C491.043 117.901 490.021 116.039 488.313 114.888L458.229 96.6352C453.954 93.7768 448.083 96.7087 448.083 101.633C448.083 103.561 449.036 105.455 450.813 106.648ZM533.882 138.277C533.882 134.896 530.998 132.152 527.445 132.152H497.403C493.858 132.152 490.966 134.896 490.966 138.277C490.966 141.658 493.858 144.402 497.403 144.402H527.445C530.998 144.402 533.882 141.658 533.882 138.277Z" fill="#049789" fill-opacity="0.06"/>
<path d="M748.25 54.6667C748.25 50.763 744.997 46.5 739.667 46.5H602.333C597.012 46.5 593.75 50.7385 593.75 54.6667V185.333C593.75 190.405 598.213 193.5 602.333 193.5H739.667C743.769 193.5 748.25 190.405 748.25 185.333V54.6667ZM606.625 58.75H735.375V181.25H606.625V58.75ZM630.813 106.648L653.43 119.894L630.761 133.328C628.985 134.52 628.032 136.415 628.032 138.334C628.032 143.242 633.886 146.223 638.177 143.34L668.313 124.908C670.021 123.757 671.043 121.895 671.043 119.894C671.043 117.901 670.021 116.039 668.313 114.888L638.229 96.6352C633.954 93.7768 628.083 96.7087 628.083 101.633C628.083 103.561 629.036 105.455 630.813 106.648ZM713.882 138.277C713.882 134.896 710.998 132.152 707.445 132.152H677.403C673.858 132.152 670.966 134.896 670.966 138.277C670.966 141.658 673.858 144.402 677.403 144.402H707.445C710.998 144.402 713.882 141.658 713.882 138.277Z" fill="#049789" fill-opacity="0.03"/>
<path d="M928.25 54.6667C928.25 50.763 924.997 46.5 919.667 46.5H782.333C777.012 46.5 773.75 50.7385 773.75 54.6667V185.333C773.75 190.405 778.213 193.5 782.333 193.5H919.667C923.769 193.5 928.25 190.405 928.25 185.333V54.6667ZM786.625 58.75H915.375V181.25H786.625V58.75ZM810.813 106.648L833.43 119.894L810.761 133.328C808.985 134.52 808.032 136.415 808.032 138.334C808.032 143.242 813.886 146.223 818.177 143.34L848.313 124.908C850.021 123.757 851.043 121.895 851.043 119.894C851.043 117.901 850.021 116.039 848.313 114.888L818.229 96.6352C813.954 93.7768 808.083 96.7087 808.083 101.633C808.083 103.561 809.036 105.455 810.813 106.648ZM893.882 138.277C893.882 134.896 890.998 132.152 887.445 132.152H857.403C853.858 132.152 850.966 134.896 850.966 138.277C850.966 141.658 853.858 144.402 857.403 144.402H887.445C890.998 144.402 893.882 141.658 893.882 138.277Z" fill="#049789" fill-opacity="0.02"/>
<path d="M208.25 54.6667C208.25 50.763 204.997 46.5 199.667 46.5H62.3333C57.0117 46.5 53.75 50.7385 53.75 54.6667V185.333C53.75 190.405 58.2133 193.5 62.3333 193.5H199.667C203.769 193.5 208.25 190.405 208.25 185.333V54.6667ZM66.625 58.75H195.375V181.25H66.625V58.75ZM90.8128 106.648L113.43 119.894L90.7613 133.328C88.9846 134.52 88.0318 136.415 88.0318 138.334C88.0318 143.242 93.8857 146.223 98.1773 143.34L128.313 124.908C130.021 123.757 131.043 121.895 131.043 119.894C131.043 117.901 130.021 116.039 128.313 114.888L98.2288 96.6352C93.9543 93.7768 88.0833 96.7087 88.0833 101.633C88.0833 103.561 89.0361 105.455 90.8128 106.648ZM173.882 138.277C173.882 134.896 170.998 132.152 167.445 132.152H137.403C133.858 132.152 130.966 134.896 130.966 138.277C130.966 141.658 133.858 144.402 137.403 144.402H167.445C170.998 144.402 173.882 141.658 173.882 138.277Z" fill="#049789"/>
<path d="M289.456 147.64C286.341 147.64 283.611 147.064 281.264 145.912C278.917 144.717 277.083 143.075 275.76 140.984C274.48 138.851 273.84 136.376 273.84 133.56V113.72C273.84 110.861 274.48 108.387 275.76 106.296C277.083 104.205 278.917 102.584 281.264 101.432C283.611 100.237 286.341 99.64 289.456 99.64C292.613 99.64 295.344 100.237 297.648 101.432C299.995 102.584 301.808 104.205 303.088 106.296C304.411 108.387 305.072 110.861 305.072 113.72H295.472C295.472 111.843 294.939 110.413 293.872 109.432C292.848 108.451 291.376 107.96 289.456 107.96C287.536 107.96 286.043 108.451 284.976 109.432C283.952 110.413 283.44 111.843 283.44 113.72V133.56C283.44 135.395 283.952 136.824 284.976 137.848C286.043 138.829 287.536 139.32 289.456 139.32C291.376 139.32 292.848 138.829 293.872 137.848C294.939 136.824 295.472 135.395 295.472 133.56H305.072C305.072 136.376 304.411 138.851 303.088 140.984C301.808 143.075 299.995 144.717 297.648 145.912C295.344 147.064 292.613 147.64 289.456 147.64ZM327.575 147.64C324.46 147.64 321.751 147.064 319.447 145.912C317.143 144.717 315.351 143.075 314.071 140.984C312.834 138.851 312.215 136.376 312.215 133.56V125.24C312.215 122.424 312.834 119.971 314.071 117.88C315.351 115.747 317.143 114.104 319.447 112.952C321.751 111.757 324.46 111.16 327.575 111.16C330.732 111.16 333.442 111.757 335.703 112.952C338.007 114.104 339.778 115.747 341.015 117.88C342.295 119.971 342.935 122.424 342.935 125.24V133.56C342.935 136.376 342.295 138.851 341.015 140.984C339.778 143.075 338.007 144.717 335.703 145.912C333.442 147.064 330.732 147.64 327.575 147.64ZM327.575 139.32C329.452 139.32 330.882 138.829 331.863 137.848C332.844 136.824 333.335 135.395 333.335 133.56V125.24C333.335 123.363 332.844 121.933 331.863 120.952C330.882 119.971 329.452 119.48 327.575 119.48C325.74 119.48 324.311 119.971 323.287 120.952C322.306 121.933 321.815 123.363 321.815 125.24V133.56C321.815 135.395 322.306 136.824 323.287 137.848C324.311 138.829 325.74 139.32 327.575 139.32ZM365.95 147.64C362.835 147.64 360.126 147.064 357.822 145.912C355.518 144.717 353.726 143.075 352.446 140.984C351.209 138.851 350.59 136.376 350.59 133.56V125.24C350.59 122.424 351.209 119.971 352.446 117.88C353.726 115.747 355.518 114.104 357.822 112.952C360.126 111.757 362.835 111.16 365.95 111.16C369.107 111.16 371.817 111.757 374.078 112.952C376.382 114.104 378.153 115.747 379.39 117.88C380.67 119.971 381.31 122.424 381.31 125.24V133.56C381.31 136.376 380.67 138.851 379.39 140.984C378.153 143.075 376.382 144.717 374.078 145.912C371.817 147.064 369.107 147.64 365.95 147.64ZM365.95 139.32C367.827 139.32 369.257 138.829 370.238 137.848C371.219 136.824 371.71 135.395 371.71 133.56V125.24C371.71 123.363 371.219 121.933 370.238 120.952C369.257 119.971 367.827 119.48 365.95 119.48C364.115 119.48 362.686 119.971 361.662 120.952C360.681 121.933 360.19 123.363 360.19 125.24V133.56C360.19 135.395 360.681 136.824 361.662 137.848C362.686 138.829 364.115 139.32 365.95 139.32ZM389.541 147V100.28H399.141V125.112H403.877L411.237 111.8H421.925L412.133 129.016L422.117 147H411.237L403.813 133.176H399.141V147H389.541ZM427.98 147V138.296H440.14V120.44H429.58V111.8H449.1V138.296H459.34V147H427.98ZM443.98 106.232C442.231 106.232 440.823 105.784 439.756 104.888C438.732 103.992 438.22 102.776 438.22 101.24C438.22 99.704 438.732 98.488 439.756 97.592C440.823 96.696 442.231 96.248 443.98 96.248C445.729 96.248 447.116 96.696 448.14 97.592C449.207 98.488 449.74 99.704 449.74 101.24C449.74 102.776 449.207 103.992 448.14 104.888C447.116 105.784 445.729 106.232 443.98 106.232ZM481.139 147.64C478.024 147.64 475.294 147.064 472.947 145.912C470.643 144.717 468.851 143.075 467.571 140.984C466.334 138.851 465.715 136.376 465.715 133.56V125.24C465.715 122.424 466.334 119.971 467.571 117.88C468.851 115.747 470.643 114.104 472.947 112.952C475.294 111.757 478.024 111.16 481.139 111.16C484.254 111.16 486.942 111.757 489.203 112.952C491.507 114.104 493.278 115.747 494.515 117.88C495.795 119.971 496.435 122.424 496.435 125.24V131.64H474.867V133.56C474.867 135.779 475.4 137.464 476.467 138.616C477.534 139.725 479.134 140.28 481.267 140.28C482.76 140.28 483.955 140.024 484.851 139.512C485.79 139 486.408 138.296 486.707 137.4H496.115C495.347 140.472 493.598 142.947 490.867 144.824C488.179 146.701 484.936 147.64 481.139 147.64ZM487.283 126.712V125.112C487.283 122.936 486.771 121.272 485.747 120.12C484.766 118.968 483.23 118.392 481.139 118.392C479.048 118.392 477.47 118.989 476.403 120.184C475.379 121.379 474.867 123.064 474.867 125.24V126.2L487.923 126.072L487.283 126.712ZM519.642 147.64C516.527 147.64 513.797 147.064 511.45 145.912C509.103 144.717 507.29 143.075 506.01 140.984C504.73 138.851 504.09 136.376 504.09 133.56V125.24C504.09 122.381 504.73 119.907 506.01 117.816C507.29 115.725 509.103 114.104 511.45 112.952C513.797 111.757 516.527 111.16 519.642 111.16C524.293 111.16 528.005 112.333 530.778 114.68C533.551 117.027 535.023 120.227 535.194 124.28H525.594C525.466 122.787 524.869 121.613 523.802 120.76C522.778 119.907 521.391 119.48 519.642 119.48C517.722 119.48 516.25 119.971 515.226 120.952C514.202 121.933 513.69 123.363 513.69 125.24V133.56C513.69 135.395 514.202 136.824 515.226 137.848C516.25 138.829 517.722 139.32 519.642 139.32C521.391 139.32 522.778 138.915 523.802 138.104C524.869 137.251 525.466 136.056 525.594 134.52H535.194C535.023 138.573 533.551 141.773 530.778 144.12C528.005 146.467 524.293 147.64 519.642 147.64ZM557.825 147.64C553.089 147.64 549.377 146.36 546.689 143.8C544.044 141.24 542.721 137.741 542.721 133.304V111.8H552.321V133.24C552.321 135.203 552.79 136.717 553.729 137.784C554.668 138.808 556.033 139.32 557.825 139.32C559.574 139.32 560.918 138.808 561.857 137.784C562.838 136.717 563.329 135.203 563.329 133.24V111.8H572.929V133.304C572.929 137.784 571.585 141.304 568.897 143.864C566.209 146.381 562.518 147.64 557.825 147.64ZM600.04 147C596.456 147 593.64 145.976 591.592 143.928C589.544 141.88 588.52 139.064 588.52 135.48V120.44H579.24V111.8H588.52V101.88H598.12V111.8H611.24V120.44H598.12V135.48C598.12 137.4 599.08 138.36 601 138.36H610.6V147H600.04ZM638.415 147C634.831 147 632.015 145.976 629.967 143.928C627.919 141.88 626.895 139.064 626.895 135.48V120.44H617.615V111.8H626.895V101.88H636.495V111.8H649.615V120.44H636.495V135.48C636.495 137.4 637.455 138.36 639.375 138.36H648.975V147H638.415ZM673.014 147.64C669.899 147.64 667.169 147.064 664.822 145.912C662.518 144.717 660.726 143.075 659.446 140.984C658.209 138.851 657.59 136.376 657.59 133.56V125.24C657.59 122.424 658.209 119.971 659.446 117.88C660.726 115.747 662.518 114.104 664.822 112.952C667.169 111.757 669.899 111.16 673.014 111.16C676.129 111.16 678.817 111.757 681.078 112.952C683.382 114.104 685.153 115.747 686.39 117.88C687.67 119.971 688.31 122.424 688.31 125.24V131.64H666.742V133.56C666.742 135.779 667.275 137.464 668.342 138.616C669.409 139.725 671.009 140.28 673.142 140.28C674.635 140.28 675.83 140.024 676.726 139.512C677.665 139 678.283 138.296 678.582 137.4H687.99C687.222 140.472 685.473 142.947 682.742 144.824C680.054 146.701 676.811 147.64 673.014 147.64ZM679.158 126.712V125.112C679.158 122.936 678.646 121.272 677.622 120.12C676.641 118.968 675.105 118.392 673.014 118.392C670.923 118.392 669.345 118.989 668.278 120.184C667.254 121.379 666.742 123.064 666.742 125.24V126.2L679.798 126.072L679.158 126.712ZM697.373 147V111.8H706.333V118.52H708.765L706.013 122.616C706.013 118.819 706.888 115.96 708.637 114.04C710.386 112.12 712.946 111.16 716.317 111.16C720.2 111.16 723.208 112.333 725.341 114.68C727.517 117.027 728.605 120.333 728.605 124.6V127.48H718.365V125.24C718.365 123.32 717.832 121.827 716.765 120.76C715.741 119.693 714.354 119.16 712.605 119.16C710.77 119.16 709.362 119.693 708.381 120.76C707.442 121.827 706.973 123.32 706.973 125.24V147H697.373ZM783.275 147V109.24H771.435V100.28H804.715V109.24H792.875V147H783.275ZM817.298 158.52L822.098 145.272L808.914 111.8H819.346L824.658 127.16C825.042 128.312 825.426 129.72 825.81 131.384C826.237 133.005 826.557 134.328 826.77 135.352C826.983 134.328 827.282 133.005 827.666 131.384C828.093 129.72 828.498 128.312 828.882 127.16L834.002 111.8H843.986L827.346 158.52H817.298ZM849.849 158.52V111.8H859.129V118.52H861.369L859.129 120.76C859.129 117.731 859.961 115.384 861.625 113.72C863.289 112.013 865.572 111.16 868.473 111.16C872.014 111.16 874.852 112.419 876.985 114.936C879.118 117.411 880.185 120.739 880.185 124.92V133.88C880.185 136.653 879.694 139.085 878.713 141.176C877.774 143.224 876.43 144.824 874.681 145.976C872.932 147.085 870.862 147.64 868.473 147.64C865.572 147.64 863.289 146.808 861.625 145.144C859.961 143.437 859.129 141.069 859.129 138.04L861.369 140.28H859.129L859.449 148.92V158.52H849.849ZM865.017 139.32C866.809 139.32 868.174 138.829 869.113 137.848C870.094 136.824 870.585 135.395 870.585 133.56V125.24C870.585 123.363 870.094 121.933 869.113 120.952C868.174 119.971 866.809 119.48 865.017 119.48C863.268 119.48 861.902 119.992 860.921 121.016C859.94 121.997 859.449 123.405 859.449 125.24V133.56C859.449 135.395 859.94 136.824 860.921 137.848C861.902 138.829 863.268 139.32 865.017 139.32ZM903.264 147.64C900.149 147.64 897.419 147.064 895.072 145.912C892.768 144.717 890.976 143.075 889.696 140.984C888.459 138.851 887.84 136.376 887.84 133.56V125.24C887.84 122.424 888.459 119.971 889.696 117.88C890.976 115.747 892.768 114.104 895.072 112.952C897.419 111.757 900.149 111.16 903.264 111.16C906.379 111.16 909.067 111.757 911.328 112.952C913.632 114.104 915.403 115.747 916.64 117.88C917.92 119.971 918.56 122.424 918.56 125.24V131.64H896.992V133.56C896.992 135.779 897.525 137.464 898.592 138.616C899.659 139.725 901.259 140.28 903.392 140.28C904.885 140.28 906.08 140.024 906.976 139.512C907.915 139 908.533 138.296 908.832 137.4H918.24C917.472 140.472 915.723 142.947 912.992 144.824C910.304 146.701 907.061 147.64 903.264 147.64ZM909.408 126.712V125.112C909.408 122.936 908.896 121.272 907.872 120.12C906.891 118.968 905.355 118.392 903.264 118.392C901.173 118.392 899.595 118.989 898.528 120.184C897.504 121.379 896.992 123.064 896.992 125.24V126.2L910.048 126.072L909.408 126.712ZM927.623 147V111.8H936.583V118.52H939.015L936.263 122.616C936.263 118.819 937.138 115.96 938.887 114.04C940.636 112.12 943.196 111.16 946.567 111.16C950.45 111.16 953.458 112.333 955.591 114.68C957.767 117.027 958.855 120.333 958.855 124.6V127.48H948.615V125.24C948.615 123.32 948.082 121.827 947.015 120.76C945.991 119.693 944.604 119.16 942.855 119.16C941.02 119.16 939.612 119.693 938.631 120.76C937.692 121.827 937.223 123.32 937.223 125.24V147H927.623Z" fill="#049789"/>
</g>
<defs>
<clipPath id="clip0_116_2">
<rect width="1441" height="241" fill="white"/>
</clipPath>
</defs>
</svg>
